<svg version="1.1" id="Layer_1" xmlns="http://www.w3.org/2000/svg" xmlns:xlink="http://www.w3.org/1999/xlink" x="0px" y="0px"
	 width="100%" viewBox="0 0 512 512" enable-background="new 0 0 512 512" xml:space="preserve">
<path fill="#1C4EE4" opacity="1.000000" stroke="none" 
	d="
M289.000000,513.000000 
	C267.979095,513.000000 246.958206,513.000000 225.651855,512.599976 
	C219.843262,511.135712 214.330185,510.015991 208.795242,509.017273 
	C188.319046,505.322479 168.674103,498.926544 149.802917,490.283447 
	C128.124329,480.354523 108.265930,467.547241 90.239014,451.846344 
	C75.485146,438.996155 61.861618,425.075531 50.250843,409.377502 
	C38.582870,393.602142 28.780840,376.635498 21.140150,358.490631 
	C12.177694,337.206879 5.794164,315.223419 2.919256,292.260559 
	C2.816501,291.439819 1.663515,290.750549 0.999999,290.000000 
	C1.000000,268.312439 1.000000,246.624878 1.392467,224.665253 
	C2.850787,219.366409 4.072476,214.366867 4.956872,209.308334 
	C10.187406,179.390976 20.931793,151.469406 36.352051,125.455620 
	C50.986233,100.767921 69.800995,79.471329 91.635666,60.817478 
	C111.437584,43.900246 133.322845,30.348993 157.336594,20.396816 
	C178.170471,11.762495 199.691772,5.368797 222.239029,2.906112 
	C222.887665,2.835266 223.415710,1.660198 224.000000,0.999999 
	C245.354233,1.000000 266.708466,1.000000 288.347168,1.399632 
	C293.064819,2.549355 297.522400,3.178870 301.927307,4.069071 
	C330.858887,9.915998 358.488678,19.214767 384.246735,33.969612 
	C410.244995,48.862045 432.523621,68.015106 452.105011,90.547325 
	C469.303070,110.337036 482.977142,132.273193 493.108978,156.432678 
	C502.038757,177.725891 508.628998,199.653076 511.082703,222.712540 
	C511.170074,223.533737 512.336487,224.240112 513.000000,225.000000 
	C513.000000,246.020889 513.000000,267.041779 512.600098,288.347839 
	C511.810059,289.309052 511.178741,289.947754 511.067291,290.667023 
	C509.967712,297.761810 509.454010,304.986237 507.831512,311.954468 
	C500.215332,344.664459 487.562347,375.159790 468.141479,402.812958 
	C455.264740,421.148041 440.284454,437.394043 423.464142,452.093964 
	C403.966217,469.133942 382.304108,482.687469 358.510315,492.803772 
	C336.955902,501.968018 314.665833,508.542084 291.284912,511.082581 
	C290.463501,511.171814 289.758972,512.336548 289.000000,513.000000 
M56.073280,161.662659 
	C12.662876,254.090790 36.821373,365.311157 117.629105,429.662445 
	C221.596344,340.336700 222.479355,174.471100 117.479385,84.214355 
	C91.251556,105.128075 71.287018,131.020172 56.073280,161.662659 
z"/>
<path fill="#000000" opacity="1.000000" stroke="none" 
	d="
M289.468658,513.000000 
	C289.758972,512.336548 290.463501,511.171814 291.284912,511.082581 
	C314.665833,508.542084 336.955902,501.968018 358.510315,492.803772 
	C382.304108,482.687469 403.966217,469.133942 423.464142,452.093964 
	C440.284454,437.394043 455.264740,421.148041 468.141479,402.812958 
	C487.562347,375.159790 500.215332,344.664459 507.831512,311.954468 
	C509.454010,304.986237 509.967712,297.761810 511.067291,290.667023 
	C511.178741,289.947754 511.810059,289.309052 512.600098,288.816467 
	C513.000000,363.593719 513.000000,438.187408 513.000000,513.000000 
	C438.645905,513.000000 364.291626,513.000000 289.468658,513.000000 
z"/>
<path fill="#000000" opacity="1.000000" stroke="none" 
	d="
M513.000000,224.531342 
	C512.336487,224.240112 511.170074,223.533737 511.082703,222.712540 
	C508.628998,199.653076 502.038757,177.725891 493.108978,156.432678 
	C482.977142,132.273193 469.303070,110.337036 452.105011,90.547325 
	C432.523621,68.015106 410.244995,48.862045 384.246735,33.969612 
	C358.488678,19.214767 330.858887,9.915998 301.927307,4.069071 
	C297.522400,3.178870 293.064819,2.549355 288.815796,1.399632 
	C363.593719,1.000000 438.187408,1.000000 513.000000,1.000000 
	C513.000000,75.354088 513.000000,149.708389 513.000000,224.531342 
z"/>
<path fill="#000000" opacity="1.000000" stroke="none" 
	d="
M0.999999,290.468658 
	C1.663515,290.750549 2.816501,291.439819 2.919256,292.260559 
	C5.794164,315.223419 12.177694,337.206879 21.140150,358.490631 
	C28.780840,376.635498 38.582870,393.602142 50.250843,409.377502 
	C61.861618,425.075531 75.485146,438.996155 90.239014,451.846344 
	C108.265930,467.547241 128.124329,480.354523 149.802917,490.283447 
	C168.674103,498.926544 188.319046,505.322479 208.795242,509.017273 
	C214.330185,510.015991 219.843262,511.135712 225.183197,512.599976 
	C150.406464,513.000000 75.812927,513.000000 1.000000,513.000000 
	C1.000000,438.979248 1.000000,364.958282 0.999999,290.468658 
z"/>
<path fill="#000000" opacity="1.000000" stroke="none" 
	d="
M223.531342,0.999999 
	C223.415710,1.660198 222.887665,2.835266 222.239029,2.906112 
	C199.691772,5.368797 178.170471,11.762495 157.336594,20.396816 
	C133.322845,30.348993 111.437584,43.900246 91.635666,60.817478 
	C69.800995,79.471329 50.986233,100.767921 36.352051,125.455620 
	C20.931793,151.469406 10.187406,179.390976 4.956872,209.308334 
	C4.072476,214.366867 2.850787,219.366409 1.392467,224.196594 
	C1.000000,149.739624 1.000000,75.479248 1.000000,1.000000 
	C75.020752,1.000000 149.041718,1.000000 223.531342,0.999999 
z"/>
<path fill="#000000" opacity="1.000000" stroke="none" 
	d="
M56.278244,161.339966 
	C71.287018,131.020172 91.251556,105.128075 117.479385,84.214355 
	C222.479355,174.471100 221.596344,340.336700 117.629105,429.662445 
	C36.821373,365.311157 12.662876,254.090790 56.278244,161.339966 
z"/>
</svg>